<svg width="892" height="893" viewBox="0 0 892 893" fill="none" xmlns="http://www.w3.org/2000/svg">
<rect y="98" width="800" height="800" rx="100" transform="rotate(-7 0 98)" fill="#839CA7"/>
<g clip-path="url(#clip0)">
<path d="M519.081 567.08C522.387 571.479 527.677 573.537 532.754 572.914C535.25 572.607 537.668 571.67 539.804 570.097L579.625 540.372C586.184 535.461 587.524 526.212 582.642 519.649C577.702 513.093 568.378 511.85 561.919 516.632L522.098 546.358C515.539 551.269 514.199 560.517 519.081 567.08Z" fill="white" fill-opacity="0.4"/>
<path d="M774.214 177.362C768.508 171.439 759.145 171.307 753.286 176.947L698.639 229.486C684.259 219.574 666.511 214.433 647.849 216.724C628.765 219.067 612.441 228.678 600.842 242.253L536.137 203.741C529.106 199.596 520.036 201.846 515.836 208.898C511.66 215.918 513.969 224.996 520.977 229.187L586.407 268.13C583.34 277.889 582.109 288.373 583.435 299.171C587.788 334.629 616.692 361.19 651.013 363.902L662.197 454.99C629.551 465.922 607.931 498.678 612.286 534.149C613.268 542.143 615.799 549.504 619.055 556.423L543.492 612.836C528.15 599.203 507.455 591.743 485.521 594.436C462.138 597.307 442.888 611.026 431.527 629.761L318.11 589.447C318.992 583.181 319.371 576.787 318.564 570.213C314.209 534.742 285.299 508.193 250.986 505.48L239.801 414.393C272.44 403.459 294.066 370.694 289.712 335.235C288.566 325.899 285.556 317.277 281.354 309.446L361.16 249.96C367.723 245.078 369.075 235.813 364.181 229.266C359.313 222.701 350.016 221.324 343.487 226.245L262.483 286.623C247.458 274.579 227.841 268.295 207.266 270.821C166.778 275.792 137.88 312.78 142.851 353.268C147.205 388.726 176.116 415.286 210.429 417.999L221.613 509.086C188.975 520.02 167.348 552.774 171.703 588.245C173.085 599.504 177.132 609.716 182.851 618.702L128.228 671.091C122.327 676.736 122.123 686.108 127.785 692.022C131.139 695.511 135.807 697.006 140.281 696.456C143.336 696.081 146.303 694.756 148.7 692.453L203.441 639.95C217.809 649.827 235.527 654.946 254.15 652.66C277.539 649.788 296.794 636.061 308.154 617.319L421.563 657.63C420.679 663.902 420.299 670.303 421.106 676.883C425.462 712.354 454.371 738.903 488.685 741.616L494.277 787.159C495.273 795.276 502.648 801.038 510.766 800.042C518.884 799.045 524.646 791.67 523.649 783.552L518.057 738.009C550.702 727.077 572.323 694.321 567.968 658.85C566.986 650.856 564.455 643.495 561.198 636.576L636.762 580.163C652.104 593.796 672.799 601.256 694.733 598.563C735.235 593.59 764.12 556.618 759.147 516.116C754.792 480.645 725.889 454.093 691.569 451.383L680.385 360.296C713.03 349.361 734.649 316.597 730.296 281.139C728.917 269.912 724.891 259.725 719.2 250.755L773.783 198.277C779.668 192.619 779.857 183.25 774.214 177.362ZM172.223 349.661C169.24 325.366 186.577 303.176 210.872 300.193C235.167 297.21 257.357 314.547 260.34 338.842C263.323 363.137 245.987 385.327 221.691 388.31C197.396 391.293 175.206 373.956 172.223 349.661ZM250.543 623.288C226.248 626.271 204.058 608.934 201.075 584.639C198.092 560.344 215.428 538.154 239.724 535.171C264.019 532.188 286.209 549.524 289.192 573.82C290.051 580.815 289.063 587.564 286.872 593.801C286.843 593.88 286.778 593.928 286.75 594.006C286.729 594.061 286.744 594.119 286.725 594.174C281.214 609.417 267.701 621.181 250.543 623.288ZM499.947 711.925C475.651 714.908 453.462 697.571 450.479 673.276C449.611 666.209 450.628 659.395 452.872 653.105C452.879 653.088 452.896 653.08 452.903 653.063C452.91 653.046 452.904 653.027 452.911 653.009C458.4 637.724 471.937 625.919 489.127 623.808C513.423 620.825 535.612 638.162 538.595 662.457C541.578 686.752 524.242 708.942 499.947 711.925ZM729.775 519.723C732.758 544.018 715.422 566.208 691.126 569.191C666.831 572.174 644.641 554.837 641.658 530.542C638.675 506.247 656.012 484.057 680.307 481.074C704.602 478.091 726.792 495.428 729.775 519.723ZM662.275 334.213C637.98 337.196 615.79 319.86 612.807 295.564C609.824 271.269 627.16 249.079 651.455 246.096C675.751 243.113 697.94 260.45 700.923 284.745C703.907 309.04 686.57 331.23 662.275 334.213Z" fill="white" fill-opacity="0.4"/>
<path d="M630.839 442.426L623.626 383.681C622.629 375.563 615.254 369.801 607.137 370.798C599.019 371.795 593.257 379.17 594.254 387.288L601.467 446.032C602.464 454.15 609.839 459.912 617.956 458.915C626.074 457.918 631.836 450.543 630.839 442.426Z" fill="white" fill-opacity="0.4"/>
<path d="M271.159 426.959L278.372 485.703C279.369 493.821 286.744 499.583 294.862 498.586C302.979 497.589 308.741 490.214 307.745 482.097L300.532 423.352C299.535 415.235 292.16 409.473 284.042 410.469C275.925 411.466 270.163 418.841 271.159 426.959Z" fill="white" fill-opacity="0.4"/>
<path d="M411.068 230.89C419.186 229.893 424.948 222.518 423.951 214.4L420.344 185.028L449.717 181.422L453.323 210.794C454.32 218.912 461.695 224.674 469.812 223.677C477.93 222.68 483.692 215.305 482.695 207.187L471.876 119.071C470.879 110.953 463.504 105.191 455.387 106.188C447.269 107.185 441.507 114.56 442.504 122.677L446.11 152.049L416.738 155.656L413.131 126.284C412.135 118.166 404.76 112.404 396.642 113.401C388.525 114.398 382.763 121.773 383.759 129.89L394.579 218.007C395.575 226.124 402.95 231.886 411.068 230.89Z" fill="white" fill-opacity="0.4"/>
</g>
<g clip-path="url(#clip1)">
<path d="M512.48 564.313C515.786 568.711 521.076 570.77 526.153 570.146C528.649 569.84 531.067 568.903 533.203 567.33L573.024 537.604C579.583 532.693 580.923 523.445 576.041 516.881C571.101 510.325 561.777 509.083 555.318 513.865L515.497 543.59C508.938 548.501 507.598 557.75 512.48 564.313Z" fill="black" fill-opacity="0.9"/>
<path d="M767.613 174.595C761.907 168.672 752.544 168.54 746.685 174.18L692.038 226.719C677.658 216.807 659.911 211.665 641.248 213.957C622.164 216.3 605.84 225.911 594.241 239.486L529.536 200.974C522.505 196.829 513.435 199.078 509.235 206.131C505.059 213.151 507.368 222.228 514.376 226.419L579.806 265.363C576.739 275.122 575.508 285.606 576.834 296.403C581.187 331.862 610.091 358.423 644.412 361.135L655.596 452.222C622.951 463.155 601.33 495.91 605.685 531.381C606.667 539.375 609.198 546.736 612.454 553.656L536.891 610.069C521.549 596.436 500.854 588.975 478.92 591.669C455.537 594.54 436.287 608.259 424.927 626.994L311.51 586.68C312.391 580.414 312.77 574.02 311.963 567.446C307.608 531.975 278.698 505.426 244.385 502.713L233.201 411.625C265.839 400.692 287.465 367.926 283.111 332.468C281.965 323.132 278.955 314.509 274.753 306.678L354.559 247.193C361.122 242.31 362.474 233.046 357.58 226.499C352.712 219.934 343.415 218.556 336.886 223.478L255.882 283.855C240.857 271.812 221.24 265.527 200.665 268.054C160.177 273.025 131.279 310.013 136.25 350.5C140.604 385.959 169.515 412.519 203.828 415.232L215.012 506.319C182.374 517.253 160.747 550.007 165.102 585.478C166.484 596.737 170.531 606.949 176.25 615.935L121.627 668.324C115.726 673.969 115.522 683.34 121.184 689.255C124.538 692.744 129.206 694.238 133.681 693.689C136.735 693.314 139.702 691.988 142.099 689.685L196.84 637.182C211.208 647.059 228.926 652.179 247.549 649.893C270.939 647.021 290.193 633.294 301.553 614.551L414.962 654.863C414.078 661.135 413.698 667.536 414.505 674.115C418.861 709.586 447.77 736.136 482.084 738.848L487.676 784.391C488.672 792.509 496.047 798.271 504.165 797.274C512.283 796.278 518.045 788.902 517.048 780.785L511.456 735.242C544.101 724.309 565.722 691.554 561.367 656.083C560.385 648.089 557.854 640.728 554.597 633.809L630.161 577.395C645.503 591.028 666.198 598.489 688.132 595.796C728.634 590.823 757.519 553.851 752.546 513.349C748.191 477.878 719.288 451.326 684.968 448.616L673.784 357.528C706.429 346.594 728.048 313.83 723.695 278.371C722.316 267.145 718.29 256.957 712.599 247.988L767.182 195.51C773.068 189.852 773.256 180.482 767.613 174.595ZM165.622 346.894C162.639 322.599 179.976 300.409 204.271 297.426C228.566 294.443 250.756 311.779 253.739 336.075C256.722 360.37 239.386 382.559 215.09 385.543C190.795 388.526 168.606 371.189 165.622 346.894ZM243.942 620.52C219.647 623.503 197.457 606.167 194.474 581.872C191.491 557.576 208.828 535.387 233.123 532.404C257.418 529.421 279.608 546.757 282.591 571.052C283.45 578.048 282.462 584.796 280.271 591.034C280.242 591.112 280.177 591.16 280.149 591.238C280.128 591.294 280.143 591.352 280.124 591.407C274.613 606.649 261.1 618.414 243.942 620.52ZM493.346 709.158C469.05 712.141 446.861 694.804 443.878 670.509C443.01 663.442 444.027 656.627 446.271 650.338C446.278 650.32 446.295 650.313 446.302 650.296C446.309 650.278 446.303 650.259 446.31 650.242C451.8 634.957 465.336 623.152 482.526 621.041C506.822 618.058 529.011 635.394 531.994 659.69C534.977 683.985 517.641 706.174 493.346 709.158ZM723.174 516.955C726.157 541.251 708.821 563.44 684.525 566.423C660.23 569.407 638.041 552.07 635.057 527.775C632.074 503.48 649.411 481.29 673.706 478.307C698.001 475.324 720.191 492.66 723.174 516.955ZM655.674 331.446C631.379 334.429 609.189 317.092 606.206 292.797C603.223 268.502 620.559 246.312 644.854 243.329C669.15 240.346 691.339 257.682 694.323 281.978C697.306 306.273 679.969 328.463 655.674 331.446Z" fill="black" fill-opacity="0.9"/>
<path d="M624.238 439.658L617.025 380.914C616.028 372.796 608.653 367.034 600.536 368.031C592.418 369.028 586.656 376.403 587.653 384.52L594.866 443.265C595.863 451.382 603.238 457.144 611.355 456.148C619.473 455.151 625.235 447.776 624.238 439.658Z" fill="black" fill-opacity="0.9"/>
<path d="M264.558 424.191L271.771 482.936C272.768 491.053 280.143 496.815 288.261 495.819C296.378 494.822 302.14 487.447 301.144 479.329L293.931 420.585C292.934 412.467 285.559 406.705 277.441 407.702C269.324 408.699 263.562 416.074 264.558 424.191Z" fill="black" fill-opacity="0.9"/>
<path d="M404.467 228.122C412.585 227.126 418.347 219.751 417.35 211.633L413.743 182.261L443.116 178.654L446.722 208.027C447.719 216.144 455.094 221.906 463.211 220.909C471.329 219.913 477.091 212.538 476.094 204.42L465.275 116.303C464.278 108.186 456.903 102.424 448.786 103.421C440.668 104.417 434.906 111.792 435.903 119.91L439.509 149.282L410.137 152.889L406.531 123.516C405.534 115.399 398.159 109.637 390.041 110.634C381.924 111.63 376.162 119.005 377.158 127.123L387.978 215.24C388.974 223.357 396.349 229.119 404.467 228.122Z" fill="black" fill-opacity="0.9"/>
</g>
<defs>
<clipPath id="clip0">
<rect width="710.227" height="710.227" fill="white" transform="translate(57.0583 140.189) rotate(-7)"/>
</clipPath>
<clipPath id="clip1">
<rect width="710.227" height="710.227" fill="white" transform="translate(50.4574 137.422) rotate(-7)"/>
</clipPath>
</defs>
</svg>
